<svg width="44" height="44" viewBox="0 0 44 44" fill="none" xmlns="http://www.w3.org/2000/svg">
<circle cx="22" cy="22" r="22" fill="#0F1C26"/>
<g clip-path="url(#clip0_2003_2)">
<path d="M11.4156 16.7356C11.454 15.8596 11.829 15.0323 12.4625 14.426C13.0959 13.8198 13.9389 13.4814 14.8157 13.4814H29.1845C30.0613 13.4814 30.9043 13.8198 31.5377 14.426C32.1712 15.0323 32.5462 15.8596 32.5846 16.7356L31.4683 17.3557L22.0001 22.4536L12.5318 17.3557L11.4156 16.7356ZM11.4126 18.4636V26.7158C11.4126 27.6184 11.7711 28.484 12.4093 29.1222C13.0476 29.7604 13.9132 30.1189 14.8157 30.1189H29.1845C30.087 30.1189 30.9526 29.7604 31.5908 29.1222C32.2291 28.484 32.5876 27.6184 32.5876 26.7158V18.4636L32.1898 18.6852L22.3586 23.979C22.2484 24.0383 22.1252 24.0693 22.0001 24.0693C21.875 24.0693 21.7518 24.0383 21.6416 23.979L11.8013 18.6799L11.4126 18.4636Z" fill="white"/>
</g>
<defs>
<clipPath id="clip0_2003_2">
<rect width="22" height="17.6" fill="white" transform="translate(11 13)"/>
</clipPath>
</defs>
</svg>
