<svg width="18" height="20" viewBox="0 0 18 20" fill="none" xmlns="http://www.w3.org/2000/svg">
<g clip-path="url(#clip0_10_144)">
<path d="M9 0.841797C4.03725 0.841797 0 4.94988 0 9.99969C0 15.0495 4.03725 19.1576 9 19.1576H18V9.99969C18 4.94988 13.9628 0.841797 9 0.841797ZM5.25 11.1444C4.629 11.1444 4.125 10.6316 4.125 9.99969C4.125 9.3678 4.629 8.85495 5.25 8.85495C5.871 8.85495 6.375 9.3678 6.375 9.99969C6.375 10.6316 5.871 11.1444 5.25 11.1444ZM9 11.1444C8.379 11.1444 7.875 10.6316 7.875 9.99969C7.875 9.3678 8.379 8.85495 9 8.85495C9.621 8.85495 10.125 9.3678 10.125 9.99969C10.125 10.6316 9.621 11.1444 9 11.1444ZM12.75 11.1444C12.129 11.1444 11.625 10.6316 11.625 9.99969C11.625 9.3678 12.129 8.85495 12.75 8.85495C13.371 8.85495 13.875 9.3678 13.875 9.99969C13.875 10.6316 13.371 11.1444 12.75 11.1444Z" fill="white" fill-opacity="0.5"/>
</g>
<defs>
<clipPath id="clip0_10_144">
<rect width="18" height="18.3158" fill="white" transform="translate(0 0.841797)"/>
</clipPath>
</defs>
</svg>
