<svg width="22" height="18" viewBox="0 0 22 18" fill="none" xmlns="http://www.w3.org/2000/svg">
<g clip-path="url(#clip0_10_125)">
<path d="M0.415623 3.93578C0.454008 3.05981 0.829013 2.23246 1.46246 1.6262C2.09591 1.01995 2.93891 0.681579 3.81572 0.681641H18.1845C19.0613 0.681579 19.9043 1.01995 20.5377 1.6262C21.1712 2.23246 21.5462 3.05981 21.5846 3.93578L20.4683 4.55591L11.0001 9.65379L1.53185 4.55591L0.415623 3.93578ZM0.412598 5.66382V13.916C0.412598 14.8186 0.77114 15.6842 1.40935 16.3224C2.04756 16.9606 2.91316 17.3191 3.81572 17.3191H18.1845C19.087 17.3191 19.9526 16.9606 20.5908 16.3224C21.2291 15.6842 21.5876 14.8186 21.5876 13.916V5.66382L21.1898 5.8854L11.3586 11.1791C11.2484 11.2385 11.1252 11.2695 11.0001 11.2695C10.875 11.2695 10.7518 11.2385 10.6416 11.1791L0.80131 5.8801L0.412598 5.66382Z" fill="white" fill-opacity="0.5"/>
</g>
<defs>
<clipPath id="clip0_10_125">
<rect width="22" height="17.6" fill="white" transform="translate(0 0.200195)"/>
</clipPath>
</defs>
</svg>
