<svg width="13" height="18" viewBox="0 0 13 18" fill="none" xmlns="http://www.w3.org/2000/svg">
<path d="M6.5 8.75C7.56087 8.75 8.57828 8.32857 9.32843 7.57843C10.0786 6.82828 10.5 5.81087 10.5 4.75C10.5 3.68913 10.0786 2.67172 9.32843 1.92157C8.57828 1.17143 7.56087 0.75 6.5 0.75C5.43913 0.75 4.42172 1.17143 3.67157 1.92157C2.92143 2.67172 2.5 3.68913 2.5 4.75C2.5 5.81087 2.92143 6.82828 3.67157 7.57843C4.42172 8.32857 5.43913 8.75 6.5 8.75ZM1.875 10.25C1.37772 10.25 0.900805 10.4475 0.549175 10.7992C0.197544 11.1508 0 11.6277 0 12.125V12.75C0 12.75 0 17.25 6.5 17.25C13 17.25 13 12.75 13 12.75V12.125C13 11.6277 12.8025 11.1508 12.4508 10.7992C12.0992 10.4475 11.6223 10.25 11.125 10.25H1.875Z" fill="#FFFDFA" fill-opacity="0.5"/>
</svg>
