<svg width="18" height="20" viewBox="0 0 18 20" fill="none" xmlns="http://www.w3.org/2000/svg">
<g clip-path="url(#clip0_10_129)">
<path d="M14.25 0.841797H3.75C1.68 0.841797 0 2.55127 0 4.65759V15.3418C0 17.4481 1.68 19.1576 3.75 19.1576H14.25C16.32 19.1576 18 17.4481 18 15.3418V4.65759C18 2.55127 16.32 0.841797 14.25 0.841797ZM4.5 4.65759H9C9.4125 4.65759 9.75 5.00101 9.75 5.42074C9.75 5.84048 9.4125 6.1839 9 6.1839H4.5C4.0875 6.1839 3.75 5.84048 3.75 5.42074C3.75 5.00101 4.0875 4.65759 4.5 4.65759ZM4.5 7.71022H11.25C11.6625 7.71022 12 8.05364 12 8.47338C12 8.89311 11.6625 9.23653 11.25 9.23653H4.5C4.0875 9.23653 3.75 8.89311 3.75 8.47338C3.75 8.05364 4.0875 7.71022 4.5 7.71022ZM6.75 15.3418H4.5C4.0875 15.3418 3.75 14.9984 3.75 14.5786C3.75 14.1589 4.0875 13.8155 4.5 13.8155H6.75C7.1625 13.8155 7.5 14.1589 7.5 14.5786C7.5 14.9984 7.1625 15.3418 6.75 15.3418ZM13.5 12.2892H4.5C4.0875 12.2892 3.75 11.9457 3.75 11.526C3.75 11.1063 4.0875 10.7628 4.5 10.7628H13.5C13.9125 10.7628 14.25 11.1063 14.25 11.526C14.25 11.9457 13.9125 12.2892 13.5 12.2892Z" fill="white" fill-opacity="0.5"/>
</g>
<defs>
<clipPath id="clip0_10_129">
<rect width="18" height="18.3158" fill="white" transform="translate(0 0.841797)"/>
</clipPath>
</defs>
</svg>
