<svg width="18" height="20" viewBox="0 0 18 20" fill="none" xmlns="http://www.w3.org/2000/svg">
<g clip-path="url(#clip0_10_139)">
<path d="M17.25 9.25034C17.0511 9.25034 16.8603 9.17133 16.7196 9.03067C16.579 8.89002 16.5 8.69926 16.5 8.50034C16.4984 6.90953 15.8657 5.38433 14.7409 4.25946C13.616 3.13458 12.0908 2.50193 10.5 2.50034C10.3011 2.50034 10.1103 2.42133 9.96965 2.28067C9.829 2.14002 9.74998 1.94926 9.74998 1.75034C9.74998 1.55143 9.829 1.36067 9.96965 1.22001C10.1103 1.07936 10.3011 1.00034 10.5 1.00034C12.4884 1.00253 14.3948 1.7934 15.8009 3.19945C17.2069 4.6055 17.9978 6.51189 18 8.50034C18 8.69926 17.921 8.89002 17.7803 9.03067C17.6397 9.17133 17.4489 9.25034 17.25 9.25034ZM15 8.50034C15 7.30687 14.5259 6.16228 13.682 5.31836C12.838 4.47445 11.6935 4.00034 10.5 4.00034C10.3011 4.00034 10.1103 4.07936 9.96965 4.22001C9.829 4.36067 9.74998 4.55143 9.74998 4.75034C9.74998 4.94926 9.829 5.14002 9.96965 5.28067C10.1103 5.42133 10.3011 5.50034 10.5 5.50034C11.2956 5.50034 12.0587 5.81641 12.6213 6.37902C13.1839 6.94163 13.5 7.70469 13.5 8.50034C13.5 8.69926 13.579 8.89002 13.7196 9.03067C13.8603 9.17133 14.0511 9.25034 14.25 9.25034C14.4489 9.25034 14.6397 9.17133 14.7803 9.03067C14.921 8.89002 15 8.69926 15 8.50034ZM16.6372 17.6233L17.3197 16.8366C17.7541 16.4008 17.9981 15.8106 17.9981 15.1952C17.9981 14.5799 17.7541 13.9897 17.3197 13.5538C17.2965 13.5306 15.492 12.1423 15.492 12.1423C15.0589 11.7301 14.4836 11.5005 13.8857 11.5014C13.2878 11.5022 12.7132 11.7334 12.2812 12.1468L10.8517 13.3513C9.68486 12.8684 8.62489 12.1597 7.73269 11.266C6.84049 10.3722 6.13364 9.31104 5.65273 8.14334L6.85273 6.71834C7.26651 6.28647 7.49795 5.71175 7.49893 5.11365C7.49991 4.51554 7.27035 3.94006 6.85798 3.50684C6.85798 3.50684 5.46823 1.70459 5.44498 1.68134C5.01707 1.25065 4.43689 1.00561 3.8298 0.999154C3.22271 0.992699 2.63745 1.22535 2.20048 1.64684L1.33798 2.39684C-3.75752 8.30834 7.21498 19.1961 13.3215 19.0003C13.9381 19.0039 14.5492 18.8839 15.1187 18.6474C15.6882 18.4109 16.2045 18.0627 16.6372 17.6233Z" fill="white" fill-opacity="0.5"/>
</g>
<defs>
<clipPath id="clip0_10_139">
<rect width="18" height="18.0703" fill="white" transform="translate(0 0.964844)"/>
</clipPath>
</defs>
</svg>
