<svg width="211" height="48" viewBox="0 0 211 48" fill="none" xmlns="http://www.w3.org/2000/svg">
<path fill-rule="evenodd" clip-rule="evenodd" d="M61.2302 19.6377C61.0611 19.8675 60.8917 20.0972 60.7224 20.1548C60.5532 20.2696 60.3274 20.3271 60.0452 20.3271C59.763 20.3271 59.4808 20.2696 59.1988 20.1548C58.9166 20.0398 58.578 19.8675 58.2394 19.7526C57.9008 19.5802 57.5058 19.4654 57.1109 19.3504C56.6594 19.2355 56.208 19.178 55.6436 19.178C54.8536 19.178 54.2894 19.3504 53.8379 19.6377C53.4428 19.9249 53.217 20.3845 53.217 20.9016C53.217 21.3038 53.33 21.5909 53.6122 21.8782C53.8942 22.108 54.2328 22.3378 54.6843 22.5676C55.1357 22.7399 55.6436 22.9698 56.208 23.1421C56.7722 23.3145 57.3366 23.4868 57.9573 23.7167C58.578 23.9464 59.1423 24.1762 59.7066 24.4635C60.2709 24.7506 60.7788 25.0953 61.2302 25.555C61.6817 25.9571 62.0202 26.4742 62.3025 27.106C62.5846 27.6806 62.6975 28.4275 62.6975 29.2893C62.6975 30.3232 62.5281 31.2425 62.1332 32.1616C61.7381 33.0233 61.2302 33.7702 60.4966 34.4022C59.763 35.0342 58.8602 35.4937 57.7881 35.8959C56.7158 36.2405 55.4743 36.4129 54.0636 36.4129C53.3864 36.4129 52.6528 36.3555 51.9756 36.2405C51.2985 36.1257 50.6214 35.9534 49.9442 35.7235C49.267 35.4937 48.7027 35.2066 48.1383 34.9192C47.5741 34.632 47.1227 34.2873 46.7275 33.8851L48.1383 31.5872C48.3077 31.3 48.4769 31.1276 48.7591 30.9553C48.9848 30.783 49.3234 30.7254 49.7183 30.7254C50.057 30.7254 50.3956 30.783 50.6777 30.9553C50.9599 31.1276 51.242 31.3 51.5806 31.4723C51.9192 31.6447 52.3142 31.817 52.7656 31.9894C53.2172 32.1616 53.7815 32.2191 54.4021 32.2191C54.8536 32.2191 55.2486 32.1616 55.5872 32.0468C55.9258 31.9318 56.1515 31.817 56.3773 31.6447C56.603 31.4723 56.7158 31.3 56.8287 31.0701C56.9415 30.8403 56.9415 30.6106 56.9415 30.3808C56.9415 29.9786 56.8287 29.634 56.5466 29.3466C56.2643 29.0594 55.9258 28.8296 55.4743 28.6572C55.0229 28.4849 54.515 28.2551 53.9507 28.1402C53.3864 27.9678 52.8221 27.7955 52.2014 27.5657C51.637 27.3359 51.0163 27.106 50.452 26.8189C49.8877 26.5317 49.3798 26.1295 48.9284 25.6699C48.4769 25.2103 48.1383 24.6358 47.8563 23.9464C47.5741 23.2569 47.4611 22.4527 47.4611 21.5336C47.4611 20.6717 47.6304 19.8101 47.969 19.0057C48.3077 18.2015 48.8155 17.512 49.4926 16.8801C50.1699 16.2482 51.0163 15.7886 52.0322 15.4439C53.0479 15.0992 54.2328 14.9268 55.5872 14.9268C56.3208 14.9268 57.0545 14.9843 57.7315 15.1566C58.4087 15.2715 59.0859 15.5013 59.6502 15.7311C60.2709 15.9609 60.7788 16.2482 61.2867 16.5929C61.7946 16.9375 62.2459 17.2823 62.5846 17.6843L61.2302 19.6377Z" fill="#15394C"/>
<path fill-rule="evenodd" clip-rule="evenodd" d="M62.584 15.3862H67.4934C67.9448 15.3862 68.2834 15.5012 68.5656 15.6735C68.8478 15.9033 69.0735 16.1331 69.1864 16.4204L71.2178 25.7846C71.3871 26.474 71.5564 27.1634 71.6693 27.8528C71.7821 28.5423 71.895 29.1741 72.0079 29.8635C72.1772 29.2316 72.4029 28.5423 72.5722 27.8528C72.7414 27.1634 72.9671 26.474 73.1929 25.7846L75.7322 16.4204C75.8452 16.1331 76.0144 15.8458 76.2966 15.6735C76.5788 15.4437 76.9173 15.3862 77.3124 15.3862H80.021C80.4724 15.3862 80.811 15.5012 81.0932 15.6735C81.3753 15.9033 81.6011 16.1331 81.7139 16.4204L84.1404 25.7846C84.3097 26.474 84.5355 27.1634 84.7048 27.8528C84.8741 28.5423 85.0434 29.1741 85.2125 29.8635C85.3255 29.1741 85.4384 28.5423 85.6077 27.8528C85.7769 27.1634 85.9462 26.474 86.1156 25.7846L88.2598 16.4204C88.3728 16.1331 88.542 15.8458 88.8242 15.6735C89.1064 15.4437 89.4449 15.3862 89.84 15.3862H94.5236L88.147 36.2404H83.1811C82.8989 36.2404 82.6732 36.1829 82.5039 36.0105C82.3347 35.8383 82.1654 35.6084 82.0525 35.2063L79.1182 24.808C78.9489 24.3484 78.836 23.8888 78.723 23.4292C78.6103 22.9696 78.4973 22.5099 78.441 22.0504C78.3281 22.5099 78.2717 22.9696 78.1588 23.4292C78.0459 23.8888 77.9331 24.3484 77.7638 24.808L74.8294 35.1489C74.6037 35.8383 74.2086 36.1829 73.5316 36.1829H68.9606L62.584 15.3862Z" fill="#15394C"/>
<path fill-rule="evenodd" clip-rule="evenodd" d="M103.948 14.7534C105.302 14.7534 106.543 14.9832 107.672 15.3853C108.801 15.7875 109.76 16.4195 110.55 17.2238C111.34 18.028 112.017 19.0622 112.469 20.2111C112.92 21.4176 113.146 22.7389 113.146 24.2326C113.146 24.6922 113.146 25.0943 113.089 25.3817C113.033 25.6689 112.976 25.8987 112.864 26.0711C112.751 26.2434 112.638 26.3582 112.412 26.4156C112.243 26.4732 112.017 26.5306 111.735 26.5306H99.9974C100.167 28.2541 100.731 29.5179 101.578 30.3222C102.424 31.1264 103.496 31.4713 104.851 31.4713C105.584 31.4713 106.148 31.4138 106.713 31.1839C107.221 31.0116 107.672 30.8393 108.067 30.6095C108.462 30.3797 108.857 30.2073 109.196 30.035C109.534 29.8626 109.873 29.7478 110.268 29.7478C110.776 29.7478 111.114 29.9201 111.396 30.2648L113.202 32.5053C112.581 33.2522 111.904 33.8267 111.171 34.2862C110.437 34.7458 109.704 35.0905 108.913 35.3779C108.123 35.6651 107.39 35.8374 106.6 35.8948C105.81 36.0098 105.076 36.0672 104.399 36.0672C102.988 36.0672 101.634 35.8374 100.392 35.3779C99.151 34.9182 98.0224 34.1714 97.1195 33.2522C96.1602 32.3329 95.4266 31.1264 94.8623 29.7478C94.298 28.3689 94.0723 26.7603 94.0723 24.8645C94.0723 23.4858 94.298 22.1645 94.7494 20.9005C95.2008 19.6367 95.878 18.545 96.7808 17.6258C97.6274 16.7067 98.6995 15.9599 99.9411 15.3853C101.013 15.0407 102.424 14.7534 103.948 14.7534ZM104.06 19.0622C102.875 19.0622 101.973 19.4069 101.295 20.0962C100.618 20.7856 100.223 21.7623 99.9974 23.0261H107.616C107.616 22.5091 107.559 22.0495 107.446 21.5899C107.333 21.1303 107.108 20.7282 106.826 20.3261C106.543 19.9814 106.148 19.6367 105.697 19.4069C105.302 19.177 104.738 19.0622 104.06 19.0622Z" fill="#15394C"/>
<path fill-rule="evenodd" clip-rule="evenodd" d="M125.448 14.7534C126.802 14.7534 128.043 14.9833 129.172 15.3854C130.3 15.7876 131.26 16.4195 132.05 17.2238C132.84 18.028 133.461 19.0622 133.969 20.2111C134.42 21.4176 134.646 22.7389 134.646 24.2326C134.646 24.6922 134.646 25.0943 134.589 25.3817C134.533 25.6689 134.477 25.8987 134.364 26.0711C134.251 26.2434 134.138 26.3582 133.912 26.4157C133.743 26.4732 133.517 26.5306 133.236 26.5306H121.442C121.611 28.2541 122.175 29.5179 123.021 30.3222C123.868 31.1264 124.94 31.4713 126.295 31.4713C127.028 31.4713 127.592 31.4138 128.157 31.184C128.664 31.0116 129.116 30.8393 129.511 30.6095C129.905 30.3798 130.3 30.2073 130.64 30.035C130.978 29.8626 131.317 29.7478 131.712 29.7478C132.219 29.7478 132.558 29.9201 132.84 30.2648L134.589 32.5053C133.969 33.2522 133.291 33.8267 132.558 34.2862C131.824 34.7459 131.091 35.0906 130.3 35.3779C129.511 35.6651 128.778 35.8374 127.987 35.8949C127.197 36.0098 126.464 36.0672 125.787 36.0672C124.376 36.0672 123.021 35.8374 121.723 35.3779C120.482 34.9182 119.353 34.1714 118.45 33.2522C117.491 32.333 116.757 31.1264 116.193 29.7478C115.629 28.369 115.347 26.7603 115.347 24.8646C115.347 23.4858 115.573 22.1645 116.024 20.9006C116.475 19.6367 117.153 18.5451 118.055 17.6258C118.958 16.7067 119.974 15.9599 121.216 15.3854C122.513 15.0407 123.868 14.7534 125.448 14.7534ZM125.561 19.0622C124.376 19.0622 123.473 19.4069 122.795 20.0963C122.118 20.7856 121.723 21.7623 121.497 23.0261H129.116C129.116 22.5092 129.059 22.0495 128.947 21.5899C128.833 21.1303 128.608 20.7282 128.326 20.3261C128.043 19.9814 127.648 19.6367 127.197 19.4069C126.802 19.177 126.238 19.0622 125.561 19.0622Z" fill="#15394C"/>
<path fill-rule="evenodd" clip-rule="evenodd" d="M146.384 31.2995C146.271 31.0697 146.102 30.9549 145.989 30.8399C145.82 30.725 145.594 30.6676 145.368 30.6676C145.199 30.6676 145.03 30.725 144.916 30.7825C144.804 30.8399 144.691 30.8974 144.578 30.9549C144.522 31.0123 144.409 31.0123 144.296 31.0697C144.183 31.1272 144.07 31.1272 143.901 31.1272C143.618 31.1272 143.449 31.0697 143.337 30.8399C143.167 30.6102 143.111 30.3803 143.111 29.9781V21.0161H147.682V16.3627H143.111V11.1348H138.145V11.1922C137.355 11.3645 136.791 12.1114 136.791 12.9157V30.3228C136.791 31.1846 136.903 31.9888 137.186 32.7357C137.468 33.4826 137.807 34.1146 138.315 34.6316C138.822 35.1486 139.443 35.5507 140.177 35.8381C140.91 36.1253 141.7 36.2402 142.66 36.2402C143.618 36.2402 144.635 36.1253 145.537 35.8381C146.497 35.5507 147.344 35.0912 148.077 34.5742L148.359 34.3444L146.384 31.2995Z" fill="#15394C"/>
<path fill-rule="evenodd" clip-rule="evenodd" d="M21.7848 5.50586C11.458 5.50586 3.0498 13.9509 3.0498 24.4068C3.0498 34.8625 11.458 43.3076 21.7848 43.3076C32.1115 43.3076 40.5198 34.8625 40.5198 24.4068C40.5762 13.9509 32.168 5.50586 21.7848 5.50586ZM28.5001 23.7174L18.3989 29.3474C17.5525 29.807 16.8753 29.2899 16.8753 28.1984L16.7624 17.8575C16.7624 16.7659 17.4396 16.1915 18.2861 16.6511L28.4435 22.0513C29.29 22.5109 29.3465 23.2578 28.5001 23.7174Z" fill="#17B3BD"/>
<path fill-rule="evenodd" clip-rule="evenodd" d="M23.4774 5.16113C13.0378 5.16113 4.57324 13.7211 4.57324 24.2344C4.57324 34.7476 13.0378 43.3076 23.4774 43.3076C33.9171 43.3076 41.5916 34.7476 41.5916 24.2344C41.6481 13.7211 33.9171 5.16113 23.4774 5.16113ZM30.2491 23.545L20.0916 29.1751C19.2452 29.6346 18.568 29.1176 18.5116 28.0261L18.3987 17.6277C18.3987 16.5361 19.0759 15.9617 19.9224 16.4213L30.1928 21.879C31.0392 22.3385 31.0956 23.0854 30.2491 23.545Z" fill="#17B3BD" fill-opacity="0.5"/>
<path fill-rule="evenodd" clip-rule="evenodd" d="M40.2944 19.8117C39.6173 16.5944 36.0622 10.3325 33.805 9.35577C31.6605 8.43653 30.5319 6.88544 29.6855 6.7131C28.8955 6.54075 25.171 4.93215 23.8732 5.21942C22.5752 5.50659 20.7131 5.04707 19.6408 5.1619C18.5687 5.33425 12.8692 6.59817 9.65262 9.58552C6.6054 12.4006 5.70254 13.9518 5.70254 13.9518C5.70254 13.9518 0.00306201 25.4417 4.29178 26.8204C5.42033 27.1651 5.25106 27.8545 5.30748 29.061C5.30748 30.8418 4.79958 31.0717 6.0975 32.1058C7.39542 33.1399 8.74976 31.1865 9.87841 32.3355C10.9505 33.4846 8.80618 36.0124 11.8535 37.7358C14.9007 39.4019 14.4492 35.0357 16.5936 35.7826C18.7945 36.5295 16.8758 39.6317 19.3587 39.804C21.8417 40.0339 20.9388 36.6443 22.4059 36.8742C23.8732 37.1039 23.0268 39.5167 26.0739 38.9423C29.1212 38.3679 27.0897 35.7251 28.7262 35.2081C30.4191 34.6911 30.9833 38.0232 34.2563 34.806C37.5293 31.5887 34.4256 31.6462 35.1592 30.3823C35.8364 29.1185 36.5701 31.3016 37.5293 28.3716C38.5451 25.4417 37.6423 26.5333 37.5293 25.1544C37.4164 23.8331 40.9716 23.0289 40.2944 19.8117Z" fill="white"/>
<path fill-rule="evenodd" clip-rule="evenodd" d="M34.4255 29.5192H32.1119C31.8861 29.5192 31.7168 29.3468 31.7168 29.1171V28.4852C31.7168 28.2554 31.8861 28.083 32.1119 28.083H34.4255C34.6512 28.083 34.8205 28.2554 34.8205 28.4852V29.1171C34.7641 29.2894 34.5948 29.5192 34.4255 29.5192Z" fill="#15394C"/>
<path fill-rule="evenodd" clip-rule="evenodd" d="M34.9888 22.5101C34.9324 22.5101 34.8759 22.5101 34.7631 22.4527L34.2552 22.108C34.1423 22.0506 34.0859 21.9357 34.0859 21.8783C34.0859 21.7633 34.0859 21.6484 34.1423 21.591L35.3273 19.5229C35.4403 19.3505 35.666 19.2355 35.8352 19.3504L36.3431 19.6951C36.4559 19.7525 36.5124 19.8674 36.5124 19.9249C36.5124 20.0398 36.5124 20.1547 36.4559 20.2121L35.271 22.2803C35.271 22.4526 35.1016 22.5101 34.9888 22.5101Z" fill="#15394C"/>
<path fill-rule="evenodd" clip-rule="evenodd" d="M31.717 18.2024C31.6604 18.2024 31.6041 18.2024 31.5477 18.1449L31.0398 17.8002C30.8705 17.6854 30.814 17.4555 30.9268 17.2257L32.1119 15.1575C32.2248 14.9852 32.4506 14.8703 32.6198 14.9852L33.1277 15.33C33.2405 15.3874 33.297 15.5023 33.297 15.5597C33.297 15.6747 33.297 15.7895 33.2405 15.847L32.0554 17.9725C31.9426 18.0876 31.8297 18.2024 31.717 18.2024Z" fill="#F6BF48"/>
<path fill-rule="evenodd" clip-rule="evenodd" d="M28.6131 13.2619C28.5567 13.2619 28.5003 13.2619 28.4438 13.2045C28.331 13.1471 28.2746 13.0896 28.218 12.9746L27.4281 10.6767C27.3716 10.5618 27.3716 10.4469 27.4281 10.3895C27.4845 10.2746 27.5409 10.2171 27.6537 10.1596L28.218 9.92989C28.4438 9.87248 28.6695 9.92988 28.726 10.1596L29.5161 12.4576C29.5724 12.6875 29.5161 12.9172 29.2902 12.9746L28.726 13.2045C28.726 13.2619 28.6695 13.2619 28.6131 13.2619Z" fill="#15394C"/>
<path fill-rule="evenodd" clip-rule="evenodd" d="M25.397 14.1237C25.3407 14.1811 25.3408 14.1811 25.2843 14.2386C25.1715 14.296 25.1148 14.296 25.0021 14.296L22.6884 13.6641C22.5755 13.6641 22.5191 13.5493 22.4627 13.4917C22.4063 13.3768 22.4062 13.262 22.4062 13.2045L22.5756 12.63C22.632 12.4003 22.8576 12.2853 23.0269 12.3427L25.3407 12.9747C25.4535 12.9747 25.51 13.0896 25.5663 13.1471C25.6227 13.262 25.6227 13.3768 25.6227 13.4343L25.4536 14.0088C25.4536 14.0663 25.4535 14.1237 25.397 14.1237Z" fill="#17B3BD"/>
<path fill-rule="evenodd" clip-rule="evenodd" d="M19.753 9.98737C19.5837 9.98737 19.4144 9.87254 19.358 9.64268L19.2451 9.01082C19.2451 8.89589 19.2451 8.78097 19.3014 8.72355C19.358 8.60862 19.4708 8.55121 19.5273 8.55121L21.7845 8.03418C21.8973 8.03418 22.0102 8.03418 22.0666 8.09159C22.1795 8.14901 22.2359 8.26393 22.2359 8.32135L22.3488 8.95331C22.4052 9.18317 22.2359 9.41293 22.0666 9.47034L19.8093 9.98737H19.753Z" fill="#F6BF48"/>
<path fill-rule="evenodd" clip-rule="evenodd" d="M26.4688 33.254C26.4125 33.254 26.356 33.254 26.2995 33.1967L25.7917 32.8519C25.6224 32.7371 25.5659 32.5073 25.6789 32.2775L26.8639 30.2094C26.9767 30.037 27.2025 29.922 27.3718 30.037L27.8796 30.3817C27.9925 30.439 28.0489 30.5541 28.0489 30.6115C28.0489 30.7264 28.0489 30.8412 27.9925 30.8986L26.8074 32.9669C26.6947 33.1967 26.5817 33.254 26.4688 33.254Z" fill="#17B3BD"/>
<path fill-rule="evenodd" clip-rule="evenodd" d="M9.6525 18.3745L7.62098 17.3403C7.45172 17.2255 7.33877 16.9956 7.45172 16.8233L7.73383 16.2488C7.84668 16.019 8.07246 15.9616 8.24173 16.0765L10.2732 17.1106C10.4425 17.2255 10.5554 17.4553 10.4425 17.6276L10.1603 18.2021C10.0475 18.3745 9.82176 18.4893 9.6525 18.3745Z" fill="#F6BF48"/>
<path fill-rule="evenodd" clip-rule="evenodd" d="M9.87788 28.6003C9.82146 28.5427 9.76504 28.4852 9.76504 28.4279L9.48292 27.8534C9.37008 27.681 9.48292 27.3938 9.65219 27.2788L11.7401 26.1298C11.853 26.0723 11.9658 26.0723 12.0222 26.0723C12.1351 26.1298 12.1916 26.1874 12.248 26.2447L12.5301 26.8192C12.5866 26.9341 12.5866 27.0491 12.5301 27.1065C12.4737 27.2214 12.4173 27.2788 12.3609 27.3362L10.2729 28.4852C10.1601 28.5427 10.0472 28.5427 9.99073 28.5427C9.93431 28.6003 9.87788 28.6003 9.87788 28.6003Z" fill="#17B3BD"/>
<path fill-rule="evenodd" clip-rule="evenodd" d="M12.5301 14.4104C12.4737 14.4104 12.4173 14.4104 12.3045 14.3529L11.7966 14.0083C11.6273 13.8933 11.5709 13.6636 11.6837 13.4338L12.8688 11.3656C12.9816 11.1932 13.2073 11.0783 13.3766 11.1932L13.8845 11.5379C13.9973 11.5953 14.0538 11.7103 14.0538 11.7677C14.0538 11.8826 14.0538 11.9975 13.9973 12.055L12.8124 14.1232C12.7559 14.238 12.6995 14.2955 12.5866 14.2955C12.5866 14.4104 12.5301 14.4104 12.5301 14.4104Z" fill="#15394C"/>
<path fill-rule="evenodd" clip-rule="evenodd" d="M11.0632 23.8317C10.9503 23.9466 10.7246 23.9466 10.6118 23.7743L8.80597 22.2232C8.6367 22.0508 8.6367 21.821 8.74954 21.6486L9.1445 21.189C9.20102 21.1316 9.31387 21.0742 9.42671 21.0742C9.53956 21.0742 9.65241 21.0742 9.70883 21.189L11.5146 22.7402C11.5711 22.7976 11.6275 22.9126 11.6839 23.0274C11.6839 23.1423 11.6839 23.2572 11.6275 23.3147L11.2324 23.7743C11.1196 23.8317 11.1196 23.8317 11.0632 23.8317Z" fill="#15394C"/>
<path fill-rule="evenodd" clip-rule="evenodd" d="M13.2069 34.2301C13.0376 34.2301 12.8683 34.1152 12.8119 33.9428L12.1911 31.5875C12.1347 31.3578 12.2476 31.1278 12.4733 31.0703L13.0376 30.8979C13.1504 30.8979 13.2634 30.8979 13.3198 30.9555C13.4326 31.013 13.4891 31.0704 13.4891 31.1854L14.1098 33.5407C14.1098 33.6555 14.1098 33.7705 14.0534 33.8279C13.997 33.9428 13.9405 34.0004 13.8276 34.0004L13.2634 34.1727C13.3198 34.2301 13.2634 34.2301 13.2069 34.2301Z" fill="#15394C"/>
<path fill-rule="evenodd" clip-rule="evenodd" d="M20.8253 35.4366C20.6559 35.4366 20.4866 35.3217 20.4303 35.1493L19.866 32.794C19.8095 32.5642 19.9224 32.3343 20.1481 32.277L20.7124 32.1045C20.8253 32.1045 20.9381 32.1045 20.9945 32.162C21.1075 32.2195 21.1638 32.3343 21.1638 32.3919L21.7846 34.7472C21.7846 34.8622 21.7846 34.9771 21.7281 35.0345C21.6717 35.1493 21.6153 35.2069 21.5024 35.2069L20.9381 35.3792C20.8818 35.4366 20.8818 35.4366 20.8253 35.4366Z" fill="#F6BF48"/>
<path fill-rule="evenodd" clip-rule="evenodd" d="M30.4189 21.7071L17.3834 14.8133C16.3112 14.2387 15.4082 14.9282 15.4082 16.3644L15.5211 29.5778C15.5211 31.014 16.424 31.6459 17.4961 31.0715L30.4189 23.8903C31.5474 23.2583 31.491 22.2817 30.4189 21.7071Z" fill="#2D3945"/>
<path fill-rule="evenodd" clip-rule="evenodd" d="M30.4189 21.7071L17.3834 14.8133C16.3112 14.2387 15.4082 14.9282 15.4082 16.3644V18.1453L28.4437 24.9243L30.3624 23.8328C31.5474 23.2583 31.491 22.2817 30.4189 21.7071Z" fill="#17B3BD"/>
<path fill-rule="evenodd" clip-rule="evenodd" d="M194.055 36.1056H188.468L180.512 15.2515H185.591C186.042 15.2515 186.38 15.3664 186.663 15.5387C186.945 15.7685 187.171 15.9984 187.284 16.2856L190.106 25.6498C190.331 26.3967 190.557 27.1435 190.782 27.8904C190.952 28.6372 191.121 29.3266 191.29 30.0735C191.459 29.3266 191.628 28.6372 191.799 27.8904C191.967 27.1435 192.25 26.3967 192.475 25.6498L195.41 16.2856C195.523 15.9984 195.692 15.7111 196.031 15.5387C196.312 15.309 196.652 15.2515 197.046 15.2515H201.899L194.055 36.1056Z" fill="#15394C"/>
<path fill-rule="evenodd" clip-rule="evenodd" d="M178.593 31.1647C178.48 30.9349 178.31 30.8201 178.198 30.7052C178.029 30.5903 177.803 30.5328 177.577 30.5328C177.408 30.5328 177.239 30.5903 177.125 30.6478C177.013 30.7052 176.9 30.7626 176.787 30.8201C176.731 30.8775 176.618 30.8775 176.505 30.9349C176.392 30.9925 176.279 30.9925 176.11 30.9925C175.827 30.9925 175.658 30.9349 175.546 30.7052C175.376 30.4754 175.32 30.2456 175.32 29.8434V20.8813H179.891V16.2279H175.32V11H170.354V11.0574C169.564 11.2298 169 11.9766 169 12.781V30.1881C169 31.0499 169.112 31.8541 169.395 32.601C169.676 33.3479 170.016 33.9798 170.523 34.4969C171.031 35.0139 171.652 35.416 172.386 35.7034C173.119 35.9905 173.909 36.1055 174.869 36.1055C175.827 36.1055 176.843 35.9905 177.746 35.7034C178.706 35.416 179.553 34.9565 180.286 34.4394L180.568 34.2097L178.593 31.1647Z" fill="#15394C"/>
<path d="M165 21H152V26H165V21Z" fill="#15394C"/>
</svg>
