<svg width="193" height="62" viewBox="0 0 193 62" fill="none" xmlns="http://www.w3.org/2000/svg">
<path fill-rule="evenodd" clip-rule="evenodd" d="M61.23 19.6377C61.0608 19.8674 60.8914 20.0972 60.7222 20.1547C60.5529 20.2695 60.3271 20.327 60.045 20.327C59.7628 20.327 59.4806 20.2695 59.1986 20.1547C58.9164 20.0398 58.5777 19.8674 58.2392 19.7525C57.9006 19.5801 57.5056 19.4653 57.1106 19.3503C56.6592 19.2354 56.2078 19.1779 55.6434 19.1779C54.8533 19.1779 54.2891 19.3503 53.8376 19.6377C53.4426 19.9248 53.2168 20.3844 53.2168 20.9015C53.2168 21.3037 53.3297 21.5908 53.6119 21.8781C53.894 22.1079 54.2326 22.3377 54.6841 22.5675C55.1354 22.7398 55.6433 22.9697 56.2078 23.142C56.772 23.3144 57.3363 23.4867 57.9571 23.7166C58.5777 23.9463 59.142 24.1761 59.7064 24.4634C60.2707 24.7505 60.7786 25.0952 61.23 25.555C61.6815 25.9571 62.02 26.4741 62.3022 27.1059C62.5843 27.6805 62.6973 28.4274 62.6973 29.2892C62.6973 30.3232 62.5279 31.2424 62.1329 32.1615C61.7379 33.0232 61.23 33.7701 60.4964 34.4021C59.7628 35.0342 58.8599 35.4937 57.7878 35.8958C56.7156 36.2405 55.4741 36.4128 54.0633 36.4128C53.3861 36.4128 52.6526 36.3554 51.9754 36.2405C51.2982 36.1256 50.6211 35.9533 49.944 35.7234C49.2667 35.4937 48.7025 35.2065 48.1381 34.9191C47.5738 34.632 47.1224 34.2873 46.7273 33.8851L48.1381 31.5871C48.3074 31.2999 48.4767 31.1276 48.7589 30.9552C48.9846 30.7829 49.3231 30.7254 49.7181 30.7254C50.0567 30.7254 50.3954 30.7829 50.6775 30.9552C50.9597 31.1276 51.2418 31.2999 51.5803 31.4722C51.919 31.6446 52.3139 31.8169 52.7654 31.9893C53.217 32.1615 53.7812 32.219 54.4019 32.219C54.8533 32.219 55.2484 32.1615 55.5869 32.0467C55.9256 31.9318 56.1513 31.8169 56.377 31.6446C56.6027 31.4722 56.7156 31.2999 56.8284 31.07C56.9413 30.8402 56.9413 30.6105 56.9413 30.3807C56.9413 29.9785 56.8284 29.6339 56.5463 29.3465C56.2641 29.0593 55.9256 28.8295 55.4741 28.6571C55.0227 28.4848 54.5148 28.255 53.9505 28.1401C53.3861 27.9678 52.8218 27.7954 52.2012 27.5657C51.6368 27.3358 51.0161 27.1059 50.4518 26.8188C49.8875 26.5316 49.3796 26.1294 48.9282 25.6698C48.4767 25.2103 48.1381 24.6357 47.856 23.9463C47.5738 23.2569 47.4609 22.4527 47.4609 21.5335C47.4609 20.6716 47.6302 19.81 47.9688 19.0056C48.3074 18.2014 48.8152 17.5119 49.4924 16.8801C50.1697 16.2481 51.0161 15.7885 52.0319 15.4438C53.0476 15.0991 54.2326 14.9268 55.5869 14.9268C56.3205 14.9268 57.0542 14.9842 57.7313 15.1565C58.4085 15.2714 59.0856 15.5012 59.65 15.7311C60.2707 15.9608 60.7786 16.2481 61.2865 16.5928C61.7943 16.9375 62.2457 17.2823 62.5843 17.6843L61.23 19.6377Z" fill="white"/>
<path fill-rule="evenodd" clip-rule="evenodd" d="M62.5842 15.3867H67.4937C67.9451 15.3867 68.2836 15.5016 68.5658 15.674C68.848 15.9038 69.0737 16.1336 69.1867 16.4209L71.2181 25.7851C71.3873 26.4745 71.5566 27.1639 71.6696 27.8533C71.7823 28.5428 71.8952 29.1746 72.0082 29.864C72.1775 29.2321 72.4032 28.5428 72.5724 27.8533C72.7417 27.1639 72.9674 26.4745 73.1932 25.7851L75.7325 16.4209C75.8454 16.1336 76.0147 15.8463 76.2968 15.674C76.579 15.4442 76.9176 15.3867 77.3126 15.3867H80.0213C80.4727 15.3867 80.8112 15.5016 81.0934 15.674C81.3755 15.9038 81.6013 16.1336 81.7142 16.4209L84.1406 25.7851C84.3099 26.4745 84.5358 27.1639 84.7051 27.8533C84.8743 28.5428 85.0436 29.1746 85.2128 29.864C85.3257 29.1746 85.4387 28.5428 85.6079 27.8533C85.7772 27.1639 85.9465 26.4745 86.1158 25.7851L88.2601 16.4209C88.373 16.1336 88.5423 15.8463 88.8244 15.674C89.1066 15.4442 89.4452 15.3867 89.8402 15.3867H94.5239L88.1472 36.2409H83.1814C82.8991 36.2409 82.6735 36.1834 82.5042 36.011C82.3349 35.8388 82.1656 35.6089 82.0527 35.2068L79.1184 24.8085C78.9492 24.3489 78.8362 23.8893 78.7233 23.4297C78.6105 22.9701 78.4976 22.5104 78.4413 22.0509C78.3283 22.5104 78.272 22.9701 78.159 23.4297C78.0461 23.8893 77.9334 24.3489 77.7641 24.8085L74.8296 35.1494C74.6039 35.8388 74.2089 36.1834 73.5318 36.1834H68.9609L62.5842 15.3867Z" fill="white"/>
<path fill-rule="evenodd" clip-rule="evenodd" d="M103.948 14.7529C105.302 14.7529 106.544 14.9828 107.672 15.3849C108.801 15.7871 109.76 16.4191 110.55 17.2234C111.341 18.0276 112.018 19.0617 112.469 20.2106C112.921 21.4171 113.146 22.7385 113.146 24.2321C113.146 24.6917 113.146 25.0938 113.09 25.3812C113.033 25.6684 112.977 25.8983 112.864 26.0706C112.751 26.2429 112.638 26.3578 112.413 26.4152C112.243 26.4727 112.018 26.5301 111.736 26.5301H99.9979C100.167 28.2536 100.732 29.5175 101.578 30.3218C102.424 31.126 103.497 31.4709 104.851 31.4709C105.585 31.4709 106.149 31.4133 106.713 31.1835C107.221 31.0111 107.672 30.8388 108.068 30.609C108.462 30.3793 108.858 30.2068 109.196 30.0345C109.535 29.8622 109.873 29.7473 110.268 29.7473C110.776 29.7473 111.115 29.9197 111.397 30.2644L113.203 32.5048C112.582 33.2517 111.905 33.8263 111.171 34.2858C110.438 34.7454 109.704 35.0901 108.914 35.3775C108.124 35.6646 107.39 35.837 106.6 35.8944C105.81 36.0093 105.077 36.0667 104.399 36.0667C102.989 36.0667 101.634 35.837 100.393 35.3775C99.1515 34.9177 98.0229 34.1709 97.12 33.2517C96.1607 32.3325 95.4271 31.126 94.8628 29.7473C94.2984 28.3685 94.0728 26.7599 94.0728 24.8641C94.0728 23.4853 94.2984 22.164 94.7499 20.9001C95.2013 19.6363 95.8785 18.5446 96.7813 17.6254C97.6279 16.7062 98.7 15.9594 99.9416 15.3849C101.014 15.0402 102.424 14.7529 103.948 14.7529ZM104.061 19.0617C102.876 19.0617 101.973 19.4064 101.296 20.0958C100.619 20.7852 100.224 21.7618 99.9979 23.0256H107.616C107.616 22.5087 107.56 22.0491 107.447 21.5895C107.334 21.1298 107.108 20.7277 106.826 20.3256C106.544 19.981 106.149 19.6363 105.697 19.4064C105.302 19.1765 104.738 19.0617 104.061 19.0617Z" fill="white"/>
<path fill-rule="evenodd" clip-rule="evenodd" d="M125.448 14.7529C126.802 14.7529 128.043 14.9828 129.172 15.3849C130.3 15.7871 131.26 16.4191 132.05 17.2234C132.84 18.0276 133.461 19.0617 133.969 20.2106C134.42 21.4171 134.646 22.7385 134.646 24.2321C134.646 24.6917 134.646 25.0938 134.589 25.3812C134.533 25.6684 134.477 25.8983 134.364 26.0706C134.251 26.2429 134.138 26.3578 133.912 26.4152C133.743 26.4727 133.517 26.5301 133.236 26.5301H121.442C121.611 28.2536 122.175 29.5175 123.021 30.3218C123.868 31.126 124.94 31.4709 126.295 31.4709C127.028 31.4709 127.592 31.4133 128.157 31.1835C128.664 31.0111 129.116 30.8388 129.511 30.609C129.905 30.3793 130.3 30.2068 130.64 30.0345C130.978 29.8622 131.317 29.7473 131.712 29.7473C132.219 29.7473 132.558 29.9197 132.84 30.2644L134.589 32.5048C133.969 33.2517 133.291 33.8263 132.558 34.2858C131.824 34.7454 131.091 35.0901 130.3 35.3775C129.511 35.6646 128.778 35.837 127.987 35.8944C127.197 36.0093 126.464 36.0667 125.787 36.0667C124.376 36.0667 123.021 35.837 121.723 35.3775C120.482 34.9177 119.353 34.1709 118.45 33.2517C117.491 32.3325 116.757 31.126 116.193 29.7473C115.629 28.3685 115.347 26.7599 115.347 24.8641C115.347 23.4853 115.573 22.164 116.024 20.9001C116.475 19.6363 117.153 18.5446 118.055 17.6254C118.958 16.7062 119.974 15.9594 121.216 15.3849C122.513 15.0402 123.868 14.7529 125.448 14.7529ZM125.561 19.0617C124.376 19.0617 123.473 19.4064 122.795 20.0958C122.118 20.7852 121.723 21.7618 121.497 23.0256H129.116C129.116 22.5087 129.059 22.0491 128.947 21.5895C128.833 21.1298 128.608 20.7277 128.326 20.3256C128.043 19.981 127.648 19.6363 127.197 19.4064C126.802 19.1765 126.238 19.0617 125.561 19.0617Z" fill="white"/>
<path fill-rule="evenodd" clip-rule="evenodd" d="M177.205 36.2409H171.618L163.662 15.3867H168.74C169.192 15.3867 169.53 15.5016 169.813 15.674C170.095 15.9038 170.321 16.1336 170.433 16.4209L173.255 25.7851C173.481 26.5319 173.707 27.2787 173.932 28.0256C174.102 28.7724 174.271 29.4619 174.44 30.2088C174.609 29.4619 174.778 28.7724 174.948 28.0256C175.117 27.2787 175.4 26.5319 175.625 25.7851L178.56 16.4209C178.672 16.1336 178.841 15.8463 179.181 15.674C179.462 15.4442 179.801 15.3867 180.196 15.3867H185.049L177.205 36.2409Z" fill="white"/>
<path fill-rule="evenodd" clip-rule="evenodd" d="M146.384 31.2995C146.271 31.0697 146.102 30.9549 145.989 30.84C145.82 30.725 145.594 30.6676 145.368 30.6676C145.199 30.6676 145.03 30.725 144.916 30.7825C144.804 30.84 144.691 30.8974 144.578 30.9549C144.522 31.0123 144.409 31.0123 144.296 31.0697C144.183 31.1272 144.07 31.1272 143.901 31.1272C143.618 31.1272 143.449 31.0697 143.337 30.84C143.167 30.6102 143.111 30.3803 143.111 29.9781V21.0161H147.682V16.3627H143.111V11.1348H138.145V11.1922C137.355 11.3645 136.791 12.1114 136.791 12.9157V30.3228C136.791 31.1846 136.903 31.9888 137.186 32.7357C137.468 33.4826 137.807 34.1146 138.315 34.6316C138.822 35.1486 139.443 35.5508 140.177 35.8381C140.91 36.1253 141.7 36.2402 142.66 36.2402C143.618 36.2402 144.635 36.1253 145.537 35.8381C146.497 35.5508 147.344 35.0912 148.077 34.5742L148.359 34.3444L146.384 31.2995Z" fill="white"/>
<path fill-rule="evenodd" clip-rule="evenodd" d="M161.743 31.2995C161.631 31.0697 161.46 30.9549 161.348 30.84C161.179 30.725 160.953 30.6676 160.727 30.6676C160.558 30.6676 160.389 30.725 160.276 30.7825C160.163 30.84 160.05 30.8974 159.938 30.9549C159.881 31.0123 159.769 31.0123 159.655 31.0697C159.543 31.1272 159.429 31.1272 159.26 31.1272C158.978 31.1272 158.809 31.0697 158.696 30.84C158.526 30.6102 158.471 30.3803 158.471 29.9781V21.0161H163.041V16.3627H158.471V11.1348H153.504V11.1922C152.714 11.3645 152.15 12.1114 152.15 12.9157V30.3228C152.15 31.1846 152.263 31.9888 152.545 32.7357C152.827 33.4826 153.166 34.1146 153.673 34.6316C154.181 35.1486 154.802 35.5508 155.536 35.8381C156.269 36.1253 157.059 36.2402 158.019 36.2402C158.978 36.2402 159.993 36.1253 160.896 35.8381C161.856 35.5508 162.703 35.0912 163.436 34.5742L163.718 34.3444L161.743 31.2995Z" fill="white"/>
<path fill-rule="evenodd" clip-rule="evenodd" d="M21.7845 5.50586C11.4577 5.50586 3.04956 13.9509 3.04956 24.4067C3.04956 34.8625 11.4577 43.3076 21.7845 43.3076C32.1113 43.3076 40.5195 34.8625 40.5195 24.4067C40.5759 13.9509 32.1678 5.50586 21.7845 5.50586ZM28.4998 23.7174L18.3987 29.3474C17.5523 29.807 16.8751 29.2899 16.8751 28.1984L16.7621 17.8575C16.7621 16.7659 17.4393 16.1915 18.2858 16.6511L28.4433 22.0513C29.2897 22.5109 29.3463 23.2578 28.4998 23.7174Z" fill="#17B3BD"/>
<path fill-rule="evenodd" clip-rule="evenodd" d="M23.4774 5.16113C13.0378 5.16113 4.57324 13.7211 4.57324 24.2344C4.57324 34.7476 13.0378 43.3076 23.4774 43.3076C33.9171 43.3076 41.5916 34.7476 41.5916 24.2344C41.6481 13.7211 33.9171 5.16113 23.4774 5.16113ZM30.2491 23.545L20.0916 29.1751C19.2452 29.6346 18.568 29.1176 18.5116 28.0261L18.3987 17.6277C18.3987 16.5361 19.0759 15.9617 19.9224 16.4213L30.1928 21.879C31.0392 22.3385 31.0956 23.0854 30.2491 23.545Z" fill="#17B3BD" fill-opacity="0.5"/>
<path fill-rule="evenodd" clip-rule="evenodd" d="M40.2947 19.8111C39.6175 16.5939 36.0624 10.3319 33.8052 9.35528C31.6607 8.43605 30.5322 6.88495 29.6858 6.71261C28.8957 6.54027 25.1713 4.93166 23.8734 5.21893C22.5754 5.5061 20.7134 5.04659 19.641 5.16142C18.5689 5.33376 12.8694 6.59768 9.65286 9.58504C6.60564 12.4001 5.70278 13.9512 5.70278 13.9512C5.70278 13.9512 0.00330806 25.4412 4.29202 26.8199C5.42057 27.1646 5.2513 27.854 5.30773 29.0605C5.30773 30.8413 4.79982 31.0712 6.09774 32.1052C7.39566 33.1394 8.75 31.186 9.87865 32.335C10.9508 33.4841 8.80642 36.0118 11.8537 37.7353C14.901 39.4014 14.4495 35.0352 16.5938 35.7821C18.7947 36.529 16.876 39.6311 19.3589 39.8035C21.8419 40.0334 20.9391 36.6438 22.4062 36.8736C23.8734 37.1034 23.027 39.5162 26.0741 38.9418C29.1214 38.3673 27.0899 35.7246 28.7265 35.2075C30.4193 34.6906 30.9836 38.0226 34.2566 34.8054C37.5296 31.5882 34.4258 31.6456 35.1594 30.3818C35.8366 29.118 36.5703 31.301 37.5296 28.3711C38.5454 25.4412 37.6425 26.5327 37.5296 25.1539C37.4166 23.8325 40.9719 23.0283 40.2947 19.8111Z" fill="white"/>
<path fill-rule="evenodd" clip-rule="evenodd" d="M34.4255 29.5192H32.1119C31.8861 29.5192 31.7168 29.3468 31.7168 29.1171V28.4852C31.7168 28.2554 31.8861 28.083 32.1119 28.083H34.4255C34.6512 28.083 34.8205 28.2554 34.8205 28.4852V29.1171C34.7641 29.2894 34.5948 29.5192 34.4255 29.5192Z" fill="white"/>
<path fill-rule="evenodd" clip-rule="evenodd" d="M34.9893 22.5107C34.9329 22.5107 34.8763 22.5107 34.7636 22.4531L34.2557 22.1084C34.1428 22.051 34.0864 21.9361 34.0864 21.8787C34.0864 21.7638 34.0864 21.6489 34.1428 21.5914L35.3278 19.5233C35.4408 19.351 35.6665 19.236 35.8357 19.351L36.3436 19.6956C36.4564 19.7531 36.5129 19.868 36.5129 19.9254C36.5129 20.0403 36.5129 20.1553 36.4564 20.2127L35.2715 22.2808C35.2715 22.4531 35.1021 22.5107 34.9893 22.5107Z" fill="white"/>
<path fill-rule="evenodd" clip-rule="evenodd" d="M31.717 18.2019C31.6604 18.2019 31.6041 18.2019 31.5477 18.1444L31.0398 17.7997C30.8705 17.6849 30.814 17.455 30.9268 17.2253L32.1119 15.157C32.2248 14.9847 32.4506 14.8699 32.6198 14.9847L33.1277 15.3295C33.2405 15.3869 33.297 15.5018 33.297 15.5592C33.297 15.6742 33.297 15.789 33.2405 15.8465L32.0554 17.9721C31.9426 18.0871 31.8297 18.2019 31.717 18.2019Z" fill="#F6BF48"/>
<path fill-rule="evenodd" clip-rule="evenodd" d="M28.6134 13.2619C28.5569 13.2619 28.5005 13.2619 28.4441 13.2045C28.3312 13.1471 28.2748 13.0896 28.2183 12.9747L27.4284 10.6767C27.3719 10.5618 27.3719 10.4469 27.4284 10.3895C27.4847 10.2746 27.5411 10.2172 27.654 10.1596L28.2183 9.92989C28.4441 9.87247 28.6698 9.92989 28.7262 10.1596L29.5163 12.4576C29.5726 12.6875 29.5163 12.9172 29.2904 12.9747L28.7262 13.2045C28.7262 13.2619 28.6698 13.2619 28.6134 13.2619Z" fill="white"/>
<path fill-rule="evenodd" clip-rule="evenodd" d="M25.3966 14.1237C25.3402 14.1811 25.3402 14.1811 25.2837 14.2386C25.1709 14.296 25.1143 14.296 25.0016 14.296L22.6879 13.6641C22.575 13.6641 22.5186 13.5493 22.4622 13.4917C22.4058 13.3768 22.4058 13.262 22.4058 13.2045L22.575 12.63C22.6315 12.4003 22.8571 12.2853 23.0264 12.3427L25.3402 12.9747C25.453 12.9747 25.5095 13.0896 25.5658 13.1471C25.6222 13.262 25.6222 13.3768 25.6222 13.4343L25.453 14.0088C25.453 14.0663 25.453 14.1237 25.3966 14.1237Z" fill="#17B3BD"/>
<path fill-rule="evenodd" clip-rule="evenodd" d="M19.7535 9.98738C19.5841 9.98738 19.4149 9.87255 19.3585 9.64269L19.2456 9.01083C19.2456 8.8959 19.2456 8.78097 19.3019 8.72355C19.3585 8.60863 19.4713 8.55121 19.5278 8.55121L21.785 8.03418C21.8978 8.03418 22.0107 8.03418 22.0671 8.09159C22.18 8.14901 22.2364 8.26394 22.2364 8.32135L22.3492 8.95331C22.4057 9.18317 22.2364 9.41293 22.0671 9.47034L19.8098 9.98738H19.7535Z" fill="#F6BF48"/>
<path fill-rule="evenodd" clip-rule="evenodd" d="M26.4683 33.2536C26.412 33.2536 26.3556 33.2536 26.299 33.1962L25.7912 32.8515C25.622 32.7366 25.5654 32.5068 25.6784 32.277L26.8635 30.2089C26.9762 30.0365 27.202 29.9215 27.3714 30.0365L27.8791 30.3812C27.992 30.4385 28.0484 30.5536 28.0484 30.611C28.0484 30.7259 28.0484 30.8407 27.992 30.8982L26.8069 32.9664C26.6942 33.1962 26.5812 33.2536 26.4683 33.2536Z" fill="#17B3BD"/>
<path fill-rule="evenodd" clip-rule="evenodd" d="M9.65274 18.374L7.62123 17.3399C7.45196 17.225 7.33902 16.9952 7.45196 16.8228L7.73407 16.2484C7.84692 16.0185 8.07271 15.9611 8.24198 16.076L10.2735 17.1101C10.4428 17.225 10.5556 17.4548 10.4428 17.6271L10.1605 18.2017C10.0477 18.374 9.82201 18.4888 9.65274 18.374Z" fill="#F6BF48"/>
<path fill-rule="evenodd" clip-rule="evenodd" d="M9.87788 28.6002C9.82146 28.5427 9.76504 28.4852 9.76504 28.4279L9.48292 27.8533C9.37008 27.681 9.48292 27.3937 9.65219 27.2788L11.7401 26.1298C11.853 26.0723 11.9658 26.0723 12.0222 26.0723C12.1351 26.1298 12.1916 26.1873 12.248 26.2446L12.5301 26.8192C12.5866 26.9341 12.5866 27.049 12.5301 27.1064C12.4737 27.2214 12.4173 27.2788 12.3609 27.3362L10.2729 28.4852C10.1601 28.5427 10.0472 28.5427 9.99073 28.5427C9.93431 28.6002 9.87788 28.6002 9.87788 28.6002Z" fill="#17B3BD"/>
<path fill-rule="evenodd" clip-rule="evenodd" d="M12.5299 14.4108C12.4735 14.4108 12.4171 14.4108 12.3042 14.3534L11.7963 14.0087C11.627 13.8938 11.5706 13.6641 11.6835 13.4343L12.8685 11.3661C12.9814 11.1937 13.2071 11.0788 13.3763 11.1937L13.8842 11.5384C13.9971 11.5958 14.0535 11.7108 14.0535 11.7682C14.0535 11.8831 14.0535 11.998 13.9971 12.0554L12.8121 14.1237C12.7557 14.2385 12.6993 14.296 12.5863 14.296C12.5863 14.4108 12.5299 14.4108 12.5299 14.4108Z" fill="white"/>
<path fill-rule="evenodd" clip-rule="evenodd" d="M11.0632 23.8317C10.9503 23.9466 10.7246 23.9466 10.6118 23.7743L8.80597 22.2232C8.6367 22.0509 8.6367 21.821 8.74954 21.6487L9.1445 21.189C9.20102 21.1316 9.31387 21.0742 9.42671 21.0742C9.53956 21.0742 9.65241 21.0742 9.70883 21.189L11.5146 22.7402C11.5711 22.7977 11.6275 22.9126 11.6839 23.0274C11.6839 23.1423 11.6839 23.2573 11.6275 23.3147L11.2324 23.7743C11.1196 23.8317 11.1196 23.8317 11.0632 23.8317Z" fill="white"/>
<path fill-rule="evenodd" clip-rule="evenodd" d="M13.2074 34.2306C13.0381 34.2306 12.8688 34.1157 12.8124 33.9433L12.1916 31.5879C12.1352 31.3582 12.248 31.1283 12.4737 31.0708L13.0381 30.8984C13.1509 30.8984 13.2639 30.8984 13.3203 30.956C13.4331 31.0135 13.4895 31.0708 13.4895 31.1858L14.1103 33.5412C14.1103 33.656 14.1103 33.771 14.0539 33.8284C13.9974 33.9433 13.941 34.0008 13.8281 34.0008L13.2639 34.1732C13.3203 34.2306 13.2639 34.2306 13.2074 34.2306Z" fill="white"/>
<path fill-rule="evenodd" clip-rule="evenodd" d="M20.8255 35.4366C20.6561 35.4366 20.4869 35.3217 20.4305 35.1494L19.8662 32.794C19.8097 32.5642 19.9226 32.3343 20.1483 32.277L20.7127 32.1045C20.8255 32.1045 20.9383 32.1045 20.9948 32.162C21.1077 32.2195 21.164 32.3344 21.164 32.3919L21.7849 34.7473C21.7849 34.8622 21.7849 34.9771 21.7284 35.0345C21.6719 35.1494 21.6155 35.2069 21.5027 35.2069L20.9383 35.3792C20.882 35.4366 20.882 35.4366 20.8255 35.4366Z" fill="#F6BF48"/>
<path fill-rule="evenodd" clip-rule="evenodd" d="M30.4189 21.7066L17.3834 14.8128C16.3112 14.2382 15.4082 14.9277 15.4082 16.3639L15.5211 29.5773C15.5211 31.0135 16.424 31.6454 17.4961 31.071L30.4189 23.8898C31.5474 23.2578 31.491 22.2812 30.4189 21.7066Z" fill="#0F1C26"/>
<path fill-rule="evenodd" clip-rule="evenodd" d="M30.4189 21.7066L17.3834 14.8128C16.3112 14.2382 15.4082 14.9277 15.4082 16.3638V18.1448L28.4437 24.9238L30.3624 23.8323C31.5474 23.2578 31.491 22.2812 30.4189 21.7066Z" fill="#17B3BD"/>
<path d="M7.499 51.7H8.399V58H7.499V51.7ZM3.881 58H2.981V51.7H3.881V58ZM7.58 55.192H3.791V54.409H7.58V55.192ZM9.49081 58L12.3438 51.7H13.2348L16.0968 58H15.1518L12.6048 52.204H12.9648L10.4178 58H9.49081ZM10.7058 56.425L10.9488 55.705H14.4948L14.7558 56.425H10.7058ZM17.1841 58V51.7H18.0751V57.217H21.5851V51.7H22.4761V58H17.1841ZM22.6111 59.431V57.766L22.8271 58H21.5851V57.217H23.4481V59.431H22.6111ZM24.646 58V51.7H25.537V58H24.646ZM30.3375 58.072C29.8575 58.072 29.4105 57.991 28.9965 57.829C28.5885 57.667 28.2345 57.442 27.9345 57.154C27.6345 56.86 27.4005 56.518 27.2325 56.128C27.0645 55.738 26.9805 55.312 26.9805 54.85C26.9805 54.388 27.0645 53.962 27.2325 53.572C27.4005 53.182 27.6345 52.843 27.9345 52.555C28.2345 52.261 28.5885 52.033 28.9965 51.871C29.4045 51.709 29.8515 51.628 30.3375 51.628C30.8175 51.628 31.2585 51.709 31.6605 51.871C32.0685 52.027 32.4225 52.252 32.7225 52.546C33.0285 52.834 33.2625 53.173 33.4245 53.563C33.5925 53.953 33.6765 54.382 33.6765 54.85C33.6765 55.318 33.5925 55.747 33.4245 56.137C33.2625 56.527 33.0285 56.869 32.7225 57.163C32.4225 57.451 32.0685 57.676 31.6605 57.838C31.2585 57.994 30.8175 58.072 30.3375 58.072ZM30.3375 57.271C30.6855 57.271 31.0065 57.211 31.3005 57.091C31.6005 56.971 31.8585 56.803 32.0745 56.587C32.2965 56.365 32.4675 56.107 32.5875 55.813C32.7135 55.519 32.7765 55.198 32.7765 54.85C32.7765 54.502 32.7135 54.181 32.5875 53.887C32.4675 53.593 32.2965 53.338 32.0745 53.122C31.8585 52.9 31.6005 52.729 31.3005 52.609C31.0065 52.489 30.6855 52.429 30.3375 52.429C29.9835 52.429 29.6565 52.489 29.3565 52.609C29.0625 52.729 28.8045 52.9 28.5825 53.122C28.3605 53.338 28.1865 53.593 28.0605 53.887C27.9405 54.181 27.8805 54.502 27.8805 54.85C27.8805 55.198 27.9405 55.519 28.0605 55.813C28.1865 56.107 28.3605 56.365 28.5825 56.587C28.8045 56.803 29.0625 56.971 29.3565 57.091C29.6565 57.211 29.9835 57.271 30.3375 57.271ZM39.6494 51.7H40.5494V58H39.6494V51.7ZM36.0314 58H35.1314V51.7H36.0314V58ZM39.7304 55.192H35.9414V54.409H39.7304V55.192ZM41.6412 58L44.4942 51.7H45.3852L48.2472 58H47.3022L44.7552 52.204H45.1152L42.5682 58H41.6412ZM42.8562 56.425L43.0992 55.705H46.6452L46.9062 56.425H42.8562ZM49.0375 58.072C48.9475 58.072 48.8575 58.066 48.7675 58.054C48.6775 58.042 48.5785 58.024 48.4705 58L48.5335 57.199C48.6295 57.223 48.7255 57.235 48.8215 57.235C49.0855 57.235 49.2955 57.13 49.4515 56.92C49.6075 56.71 49.7215 56.392 49.7935 55.966C49.8715 55.54 49.9225 55.003 49.9465 54.355L50.0455 51.7H54.4825V58H53.6005V52.249L53.8165 52.483H50.6215L50.8195 52.24L50.7475 54.328C50.7295 54.952 50.6875 55.498 50.6215 55.966C50.5555 56.434 50.4565 56.824 50.3245 57.136C50.1925 57.448 50.0215 57.682 49.8115 57.838C49.6075 57.994 49.3495 58.072 49.0375 58.072ZM59.2079 53.896C59.9519 53.896 60.5249 54.064 60.9269 54.4C61.3289 54.73 61.5299 55.225 61.5299 55.885C61.5299 56.581 61.3109 57.109 60.8729 57.469C60.4409 57.823 59.8319 58 59.0459 58H56.4449V51.7H57.3359V53.896H59.2079ZM59.0099 57.289C59.5319 57.289 59.9309 57.172 60.2069 56.938C60.4889 56.704 60.6299 56.359 60.6299 55.903C60.6299 55.459 60.4919 55.132 60.2159 54.922C59.9399 54.712 59.5379 54.607 59.0099 54.607H57.3359V57.289H59.0099ZM67.3789 51.7H68.2789V58H67.3789V51.7ZM63.7609 58H62.8609V51.7H63.7609V58ZM67.4599 55.192H63.6709V54.409H67.4599V55.192ZM70.2437 58V51.7H71.1347V56.56L74.8607 51.7H75.6887V58H74.8067V53.149L71.0717 58H70.2437ZM77.6529 58V51.7H78.5439V56.56L82.2699 51.7H83.0979V58H82.2159V53.149L78.4809 58H77.6529ZM80.3619 51.259C79.8699 51.259 79.4889 51.151 79.2189 50.935C78.9549 50.719 78.8199 50.416 78.8139 50.026H79.4529C79.4589 50.26 79.5429 50.443 79.7049 50.575C79.8669 50.701 80.0859 50.764 80.3619 50.764C80.6319 50.764 80.8479 50.701 81.0099 50.575C81.1779 50.443 81.2649 50.26 81.2709 50.026H81.9009C81.8949 50.416 81.7569 50.719 81.4869 50.935C81.2229 51.151 80.8479 51.259 80.3619 51.259ZM90.314 58.072C89.834 58.072 89.387 57.991 88.973 57.829C88.565 57.667 88.211 57.442 87.911 57.154C87.611 56.86 87.377 56.518 87.209 56.128C87.041 55.738 86.957 55.312 86.957 54.85C86.957 54.388 87.041 53.962 87.209 53.572C87.377 53.182 87.611 52.843 87.911 52.555C88.211 52.261 88.565 52.033 88.973 51.871C89.381 51.709 89.828 51.628 90.314 51.628C90.794 51.628 91.235 51.709 91.637 51.871C92.045 52.027 92.399 52.252 92.699 52.546C93.005 52.834 93.239 53.173 93.401 53.563C93.569 53.953 93.653 54.382 93.653 54.85C93.653 55.318 93.569 55.747 93.401 56.137C93.239 56.527 93.005 56.869 92.699 57.163C92.399 57.451 92.045 57.676 91.637 57.838C91.235 57.994 90.794 58.072 90.314 58.072ZM90.314 57.271C90.662 57.271 90.983 57.211 91.277 57.091C91.577 56.971 91.835 56.803 92.051 56.587C92.273 56.365 92.444 56.107 92.564 55.813C92.69 55.519 92.753 55.198 92.753 54.85C92.753 54.502 92.69 54.181 92.564 53.887C92.444 53.593 92.273 53.338 92.051 53.122C91.835 52.9 91.577 52.729 91.277 52.609C90.983 52.489 90.662 52.429 90.314 52.429C89.96 52.429 89.633 52.489 89.333 52.609C89.039 52.729 88.781 52.9 88.559 53.122C88.337 53.338 88.163 53.593 88.037 53.887C87.917 54.181 87.857 54.502 87.857 54.85C87.857 55.198 87.917 55.519 88.037 55.813C88.163 56.107 88.337 56.365 88.559 56.587C88.781 56.803 89.039 56.971 89.333 57.091C89.633 57.211 89.96 57.271 90.314 57.271ZM99.626 51.7H100.526V58H99.626V51.7ZM96.008 58H95.108V51.7H96.008V58ZM99.707 55.192H95.918V54.409H99.707V55.192ZM102.115 58.072C102.025 58.072 101.935 58.066 101.845 58.054C101.755 58.042 101.656 58.024 101.548 58L101.611 57.199C101.707 57.223 101.803 57.235 101.899 57.235C102.163 57.235 102.373 57.13 102.529 56.92C102.685 56.71 102.799 56.392 102.871 55.966C102.949 55.54 103 55.003 103.024 54.355L103.123 51.7H107.56V58H106.678V52.249L106.894 52.483H103.699L103.897 52.24L103.825 54.328C103.807 54.952 103.765 55.498 103.699 55.966C103.633 56.434 103.534 56.824 103.402 57.136C103.27 57.448 103.099 57.682 102.889 57.838C102.685 57.994 102.427 58.072 102.115 58.072ZM108.649 58L111.502 51.7H112.393L115.255 58H114.31L111.763 52.204H112.123L109.576 58H108.649ZM109.864 56.425L110.107 55.705H113.653L113.914 56.425H109.864ZM116.342 58V51.7H117.233V56.56L120.959 51.7H121.787V58H120.905V53.149L117.17 58H116.342ZM119.051 51.259C118.559 51.259 118.178 51.151 117.908 50.935C117.644 50.719 117.509 50.416 117.503 50.026H118.142C118.148 50.26 118.232 50.443 118.394 50.575C118.556 50.701 118.775 50.764 119.051 50.764C119.321 50.764 119.537 50.701 119.699 50.575C119.867 50.443 119.954 50.26 119.96 50.026H120.59C120.584 50.416 120.446 50.719 120.176 50.935C119.912 51.151 119.537 51.259 119.051 51.259ZM128.27 51.7H129.17V58H128.27V51.7ZM124.652 58H123.752V51.7H124.652V58ZM128.351 55.192H124.562V54.409H128.351V55.192ZM130.666 55.903V55.156H133.087V55.903H130.666ZM138.819 58L136.533 54.895L137.262 54.445L139.845 58H138.819ZM134.58 58V51.7H135.462V58H134.58ZM135.192 55.228V54.436H137.235V55.228H135.192ZM137.343 54.949L136.515 54.823L138.774 51.7H139.737L137.343 54.949ZM140.767 58V51.7H141.658V58H140.767ZM148.142 51.7H149.042V58H148.142V51.7ZM144.524 58H143.624V51.7H144.524V58ZM148.223 55.192H144.434V54.409H148.223V55.192ZM153.841 58.072C153.361 58.072 152.914 57.991 152.5 57.829C152.092 57.667 151.738 57.442 151.438 57.154C151.138 56.86 150.904 56.518 150.736 56.128C150.568 55.738 150.484 55.312 150.484 54.85C150.484 54.388 150.568 53.962 150.736 53.572C150.904 53.182 151.138 52.843 151.438 52.555C151.738 52.261 152.092 52.033 152.5 51.871C152.908 51.709 153.355 51.628 153.841 51.628C154.321 51.628 154.762 51.709 155.164 51.871C155.572 52.027 155.926 52.252 156.226 52.546C156.532 52.834 156.766 53.173 156.928 53.563C157.096 53.953 157.18 54.382 157.18 54.85C157.18 55.318 157.096 55.747 156.928 56.137C156.766 56.527 156.532 56.869 156.226 57.163C155.926 57.451 155.572 57.676 155.164 57.838C154.762 57.994 154.321 58.072 153.841 58.072ZM153.841 57.271C154.189 57.271 154.51 57.211 154.804 57.091C155.104 56.971 155.362 56.803 155.578 56.587C155.8 56.365 155.971 56.107 156.091 55.813C156.217 55.519 156.28 55.198 156.28 54.85C156.28 54.502 156.217 54.181 156.091 53.887C155.971 53.593 155.8 53.338 155.578 53.122C155.362 52.9 155.104 52.729 154.804 52.609C154.51 52.489 154.189 52.429 153.841 52.429C153.487 52.429 153.16 52.489 152.86 52.609C152.566 52.729 152.308 52.9 152.086 53.122C151.864 53.338 151.69 53.593 151.564 53.887C151.444 54.181 151.384 54.502 151.384 54.85C151.384 55.198 151.444 55.519 151.564 55.813C151.69 56.107 151.864 56.365 152.086 56.587C152.308 56.803 152.566 56.971 152.86 57.091C153.16 57.211 153.487 57.271 153.841 57.271ZM159.834 58V52.249L160.059 52.483H157.683V51.7H162.876V52.483H160.5L160.716 52.249V58H159.834ZM164.789 54.418H168.029V55.183H164.789V54.418ZM164.87 57.217H168.542V58H163.97V51.7H168.416V52.483H164.87V57.217ZM169.083 58L171.936 51.7H172.827L175.689 58H174.744L172.197 52.204H172.557L170.01 58H169.083ZM170.298 56.425L170.541 55.705H174.087L174.348 56.425H170.298ZM177.747 58V52.249L177.972 52.483H175.596V51.7H180.789V52.483H178.413L178.629 52.249V58H177.747ZM181.882 58V51.7H184.339C184.891 51.7 185.362 51.787 185.752 51.961C186.142 52.135 186.442 52.387 186.652 52.717C186.862 53.047 186.967 53.44 186.967 53.896C186.967 54.352 186.862 54.745 186.652 55.075C186.442 55.399 186.142 55.651 185.752 55.831C185.362 56.005 184.891 56.092 184.339 56.092H182.377L182.782 55.669V58H181.882ZM182.782 55.759L182.377 55.309H184.312C184.888 55.309 185.323 55.186 185.617 54.94C185.917 54.694 186.067 54.346 186.067 53.896C186.067 53.446 185.917 53.098 185.617 52.852C185.323 52.606 184.888 52.483 184.312 52.483H182.377L182.782 52.033V55.759Z" fill="white"/>
</svg>
